<svg width="20" height="20" viewBox="0 0 20 20" xmlns="http://www.w3.org/2000/svg"><path fill="none" d="M0 0h20v20H0z"/><path d="M9.167 1.667a6.67 6.67 0 0 1 6.612 5.804l1.875 2.949c.123.194.098.483-.188.607l-1.633.698v2.442a1.667 1.667 0 0 1-1.667 1.667H12.5v2.499H5v-3.078c0-.983-.363-1.914-1.037-2.754A6.667 6.667 0 0 1 9.167 1.667m0 1.667a5 5 0 0 0-3.903 8.125c.911 1.136 1.403 2.43 1.403 3.796v1.412h4.167l.002-2.5h3.331v-3.54l1.292-.553-1.286-2.021-.048-.368a5 5 0 0 0-4.958-4.352m-.442 3.136.442.442.442-.442a1.458 1.458 0 1 1 2.063 2.062l-2.505 2.505-2.504-2.505a1.458 1.458 0 1 1 2.063-2.062"/></svg>