<svg xmlns="http://www.w3.org/2000/svg" xmlns:xlink="http://www.w3.org/1999/xlink" viewBox="0,0,256,256" width="20px" height="20px" fill-rule="nonzero"><g fill="#ffffff" fill-rule="nonzero" stroke="none" stroke-width="1" stroke-linecap="butt" stroke-linejoin="miter" stroke-miterlimit="10" stroke-dasharray="" stroke-dashoffset="0" font-family="none" font-weight="none" font-size="none" text-anchor="none" style="mix-blend-mode: normal"><g transform="scale(5.33333,5.33333)"><path d="M12,6.98633c-2.74366,0 -5,2.25634 -5,5c0,2.74366 2.25634,5 5,5h24c2.74366,0 5,-2.25634 5,-5c0,-2.74366 -2.25634,-5 -5,-5zM12,9.98633h24c1.12234,0 2,0.87766 2,2c0,1.12234 -0.87766,2 -2,2h-24c-1.12234,0 -2,-0.87766 -2,-2c0,-1.12234 0.87766,-2 2,-2zM12,18.98633c-2.74366,0 -5,2.25634 -5,5c0,2.74366 2.25634,5 5,5h24c2.74366,0 5,-2.25634 5,-5c0,-2.74366 -2.25634,-5 -5,-5zM12,21.98633h24c1.12234,0 2,0.87766 2,2c0,1.12234 -0.87766,2 -2,2h-24c-1.12234,0 -2,-0.87766 -2,-2c0,-1.12234 0.87766,-2 2,-2zM12,30.98633c-2.74366,0 -5,2.25634 -5,5c0,2.74366 2.25634,5 5,5h24c2.74366,0 5,-2.25634 5,-5c0,-2.74366 -2.25634,-5 -5,-5zM12,33.98633h24c1.12234,0 2,0.87766 2,2c0,1.12234 -0.87766,2 -2,2h-24c-1.12234,0 -2,-0.87766 -2,-2c0,-1.12234 0.87766,-2 2,-2z"></path></g></g></svg>