<svg height="20" width="20" xmlns="http://www.w3.org/2000/svg" viewBox="0 0 12.8 12.8" xml:space="preserve"><path d="M12.069 10.889c-.173-.203-.578-1.012-.578-1.012s.067-.086 0-.376c-.087-.376-.463-.347-.549-.434s-.839-1.461-.897-1.62-.694-1.967-.694-1.967c-.214-.94-.608-1.331-1.128-1.446-.516-.115-.795-.087-1.027-.289-.144-.126-.139-.22-.139-.601 0 0 .156-.148.27-.353.13-.234.194-.573.194-.573.13-.052.132-.117.188-.324.078-.287.072-.483-.136-.483C7.621.477 7.152 0 6.4 0S5.179.477 5.229 1.411c-.208 0-.214.196-.136.483.056.207.058.272.188.324 0 0 .064.338.194.573.114.205.27.353.27.353 0 .381.005.475-.14.601-.231.203-.511.175-1.026.289-.521.116-.914.506-1.128 1.446 0 0-.636 1.807-.694 1.967s-.81 1.533-.897 1.62-.463.058-.549.434c-.067.29 0 .376 0 .376s-.405.81-.579 1.012.145.347.347.087c.024.035.104.061.195.073-.706.781-.303 1.799.789 1.75.894-.041 4.337-.666 4.337-.666s3.443.625 4.339.665c1.092.05 1.494-.968.788-1.75.091-.012.172-.038.195-.073.202.26.52.116.347-.087M4.578 9.595s-1.482.441-2.405.856c.19-.354.409-.836.409-.836l.926-1.33.738-1.605s.231.868.303.998.029 1.918.029 1.918m3.644 0s-.043-1.787.029-1.918c.072-.13.304-.998.304-.998l.738 1.605.925 1.33s.219.482.409.836c-.923-.415-2.405-.856-2.405-.856" style="fill:#000"/></svg>